<svg xmlns="http://www.w3.org/2000/svg" width="29.164" height="17" viewBox="0 0 29.164 17">
  <g id="Grupo_40" data-name="Grupo 40" transform="translate(-3715.232 -725.85)">
    <g id="Grupo_39" data-name="Grupo 39">
      <path id="Trazado_117" data-name="Trazado 117" d="M3744.4,740.479a2.445,2.445,0,0,1-.709,1.335,2.2,2.2,0,0,1-3.151-.159c-1.96-1.956-8.309-8.307-10.265-10.266a3.114,3.114,0,0,1-.231-.307c-.117.147-.176.239-.252.315-4.539,4.541-6.152,6.152-10.69,10.694a2.228,2.228,0,0,1-2.392.639,2.195,2.195,0,0,1-1.027-3.392,4.749,4.749,0,0,1,.341-.384c5.081-5.084,7.236-7.237,12.315-12.322a2.178,2.178,0,0,1,2.407-.646,2.591,2.591,0,0,1,.918.592c2.55,2.527,9.474,9.463,12.015,12a2.675,2.675,0,0,1,.721,1.362Z" fill="#000"/>
    </g>
  </g>
</svg>
