<svg xmlns="http://www.w3.org/2000/svg" width="48.81" height="48.812" viewBox="0 0 48.81 48.812">
  <g id="Grupo_67" data-name="Grupo 67" transform="translate(-92.044 -15827.842)">
    <g id="Grupo_66" data-name="Grupo 66">
      <path id="Trazado_38" data-name="Trazado 38" d="M116.449,15832.239c6.517,0,7.288.024,9.862.143a13.52,13.52,0,0,1,4.532.84,8.083,8.083,0,0,1,4.631,4.632,13.494,13.494,0,0,1,.841,4.532c.117,2.573.142,3.346.142,9.861s-.025,7.289-.142,9.862a13.481,13.481,0,0,1-.841,4.531,8.081,8.081,0,0,1-4.631,4.633,13.52,13.52,0,0,1-4.532.84c-2.574.117-3.345.142-9.862.142s-7.288-.024-9.862-.142a13.5,13.5,0,0,1-4.531-.84,8.079,8.079,0,0,1-4.632-4.633,13.506,13.506,0,0,1-.841-4.531c-.117-2.573-.142-3.346-.142-9.862s.025-7.288.142-9.861a13.52,13.52,0,0,1,.841-4.532,8.081,8.081,0,0,1,4.632-4.632,13.5,13.5,0,0,1,4.531-.84c2.574-.118,3.346-.143,9.862-.143m0-4.4c-6.628,0-7.459.028-10.062.147a17.9,17.9,0,0,0-5.924,1.134,12.483,12.483,0,0,0-7.138,7.138,17.919,17.919,0,0,0-1.134,5.924c-.119,2.6-.147,3.435-.147,10.063s.028,7.46.147,10.063a17.92,17.92,0,0,0,1.134,5.925,12.483,12.483,0,0,0,7.138,7.138,17.921,17.921,0,0,0,5.924,1.134c2.6.119,3.434.147,10.062.147s7.459-.028,10.062-.147a17.921,17.921,0,0,0,5.924-1.134,12.483,12.483,0,0,0,7.138-7.138,17.943,17.943,0,0,0,1.135-5.925c.118-2.6.146-3.434.146-10.062s-.028-7.459-.146-10.062a17.942,17.942,0,0,0-1.135-5.924,12.483,12.483,0,0,0-7.138-7.138,17.9,17.9,0,0,0-5.924-1.134c-2.6-.119-3.434-.147-10.062-.147"/>
      <path id="Trazado_39" data-name="Trazado 39" d="M116.449,15839.715a12.533,12.533,0,1,0,12.532,12.532,12.533,12.533,0,0,0-12.532-12.532m0,20.668a8.135,8.135,0,1,1,8.135-8.136,8.135,8.135,0,0,1-8.135,8.136"/>
      <path id="Trazado_40" data-name="Trazado 40" d="M132.4,15839.22a2.929,2.929,0,1,1-2.928-2.929,2.929,2.929,0,0,1,2.928,2.929"/>
    </g>
  </g>
</svg>
