<svg id="Grupo_1330" data-name="Grupo 1330" xmlns="http://www.w3.org/2000/svg" xmlns:xlink="http://www.w3.org/1999/xlink" width="750" height="802.04" viewBox="0 0 750 802.04">
  <defs>
    <clipPath id="clip-path">
      <rect id="Rect치ngulo_242" data-name="Rect치ngulo 242" width="750" height="802.04" fill="none"/>
    </clipPath>
  </defs>
  <g id="Grupo_1329" data-name="Grupo 1329" clip-path="url(#clip-path)">
    <rect id="Rect치ngulo_241" data-name="Rect치ngulo 241" width="1368.655" height="804.76" transform="translate(-359.091)"/>
    <path id="Trazado_17747" data-name="Trazado 17747" d="M1195.007,976.748H52.84l361.188,817.134h780.979Z" transform="translate(-33.726 -982.938)" fill="#fffdf8"/>
    <path id="Trazado_17748" data-name="Trazado 17748" d="M147.881,1020.61h0a7.411,7.411,0,0,0-5.4-3.169,7.643,7.643,0,0,0-6.062,2.113c-.439.421-.909.832-1.378,1.223a24.265,24.265,0,0,1-33.445-2.591,7.583,7.583,0,0,0-6.162-2.554,7.358,7.358,0,0,0-5.682,3.149l-.26.362a7.212,7.212,0,0,0,.589,8.969,39.835,39.835,0,0,0,54.837,4.177c.779-.636,1.548-1.321,2.277-2.024a7.213,7.213,0,0,0,.959-9.273Z" transform="translate(284.033 -641.636)"/>
    <path id="Trazado_17749" data-name="Trazado 17749" d="M260.857,1034.052a39.4,39.4,0,0,0-28.991,10.554,7.438,7.438,0,0,0-1.188,9.419l.15.244a7.554,7.554,0,0,0,5.423,3.433,7.877,7.877,0,0,0,6.322-1.976,24.7,24.7,0,0,1,18.106-6.621c12.1.822,21.851,10.788,22.21,22.682a23,23,0,0,1-6.771,17.018,23.975,23.975,0,0,1-17.147,7.121,24.217,24.217,0,0,1-15.629-5.692l-1.089-.861-.01.01c-5.153-4.558-9.717-12.226-14.53-20.315-6.521-10.955-13.272-22.281-23.289-28.893-.3-.205-.609-.4-.939-.6a39.955,39.955,0,0,0-42.443,1.086c-.9.616-1.758,1.252-2.557,1.888-8.928,7-15.959,17.214-22.75,27.093l-.06.078c-7.64,11.121-14.86,21.635-23.159,25.108a11.9,11.9,0,0,1-10.306-.508c-4.973-2.768-5.722-8.7-5.722-27.632V1015.2a7.676,7.676,0,0,0-15.35,0v51.487c0,2,0,3.922.01,5.771.07,9.938.809,16.529,2.387,21.361a24.758,24.758,0,0,0,8.559,12.119,29.343,29.343,0,0,0,15.7,4.851c8.3,0,15.04-2.964,22.55-9.909,6.661-6.172,12.443-14.573,18.026-22.691l.05-.069c6.671-9.7,13.562-19.747,21.411-25.137a24.046,24.046,0,0,1,13.292-3.942,24.314,24.314,0,0,1,12.134,3.228l.07.049c7.34,4.547,13.332,14.593,19.125,24.325,5.842,9.83,11.894,19.992,20.253,26.115l.389.274a39.93,39.93,0,0,0,23.878,7.923,39.373,39.373,0,0,0,27.843-11.365,37.807,37.807,0,0,0,.469-53.717,39.4,39.4,0,0,0-26.425-11.826" transform="translate(220.571 -711.3)"/>
    <path id="Trazado_17750" data-name="Trazado 17750" d="M143.2,1010.381a39.673,39.673,0,0,0-23.928,7.991v-.234a7.681,7.681,0,0,0-15.36,0v88.194a7.681,7.681,0,0,0,15.36,0v-26.986a39.669,39.669,0,0,0,23.928,7.991c21.661,0,39.288-17.263,39.288-38.478s-17.627-38.478-39.288-38.478m23.928,38.478c0,12.921-10.736,23.435-23.928,23.435a23.44,23.44,0,1,1,0-46.87c13.192,0,23.928,10.515,23.928,23.435" transform="translate(425.206 -687.609)"/>
    <path id="Trazado_17751" data-name="Trazado 17751" d="M184.617,1058.69a26.907,26.907,0,0,1,7.21,19.092,29.7,29.7,0,0,1-4.7,16.218q-4.719,7.423-14.351,11.884t-23.619,4.469a82.853,82.853,0,0,1-21.411-2.807,66.1,66.1,0,0,1-8.459-2.856,9.867,9.867,0,0,1-5-13.654,10.2,10.2,0,0,1,13.063-4.656,49.976,49.976,0,0,0,5.4,2,53.536,53.536,0,0,0,15.819,2.377q8.973,0,14.131-3.385a10.83,10.83,0,0,0,5.143-9.586q0-12.382-19.274-12.392a10.775,10.775,0,0,1-10.886-10.662V1054a10.551,10.551,0,0,1,2.726-7.061l18.455-20.463H124.577a9.372,9.372,0,1,1,0-18.74H175.9a11.12,11.12,0,0,1,11.225,10.993,10.881,10.881,0,0,1-2.8,7.258l-20.463,22.828q13.542,2.158,20.752,9.869" transform="translate(508.469 -710.79)" fill="#7400b8"/>
    <path id="Trazado_17752" data-name="Trazado 17752" d="M339.517,1429.339,149.561,997.567a54.423,54.423,0,0,0-49.933-32.179c-39.078,0-65.393,39.173-49.933,74.326l189.957,431.772a54.434,54.434,0,0,0,49.933,32.179c39.078,0,65.393-39.172,49.933-74.326" transform="translate(-102.394 -1082.691)" fill="#5e60ce"/>
    <path id="Trazado_17753" data-name="Trazado 17753" d="M423.143,1414.014l-143.1-325.267c-17.187-39.056-56.445-64.359-99.867-64.359-78.156,0-130.8,78.346-99.867,148.642L223.419,1498.3c17.177,39.066,56.435,64.36,99.857,64.36,78.156,0,130.8-78.346,99.867-148.642" transform="translate(132.316 -564.604)" fill="#80ffdb"/>
    <path id="Trazado_17754" data-name="Trazado 17754" d="M348.524,1579.713,90.258,992.7a28.368,28.368,0,0,0-26.035-16.784c-20.373,0-34.095,20.423-26.035,38.742l258.266,587.035a28.372,28.372,0,0,0,26.035,16.785c20.373,0,34.095-20.423,26.035-38.763" transform="translate(-186.46 -990.263)" fill="#64dfdf"/>
    <path id="Trazado_17755" data-name="Trazado 17755" d="M357.442,1439.855l-164.77-374.532c-13.212-30.018-43.392-49.472-76.768-49.472-60.09,0-100.546,60.231-76.768,114.271l164.77,374.533c13.2,30.018,43.382,49.473,76.768,49.473,60.08,0,100.546-60.232,76.768-114.272" transform="translate(-219.027 -639.586)" fill="#7400b8"/>
    <path id="Trazado_17756" data-name="Trazado 17756" d="M180.366,1216.808l-65.882-152.144a49.782,49.782,0,0,0-45.8-29.7c-35.642,0-59.72,35.623-45.809,67.753l65.882,152.133a49.794,49.794,0,0,0,45.809,29.705c35.633,0,59.71-35.623,45.8-67.752" transform="translate(-338.955 -471.701)" fill="#64dfdf"/>
  </g>
</svg>
