<svg xmlns="http://www.w3.org/2000/svg" xmlns:xlink="http://www.w3.org/1999/xlink" width="483" height="500" viewBox="0 0 483 500">
  <defs>
    <clipPath id="clip-path">
      <rect id="Rectángulo_36" data-name="Rectángulo 36" width="483" height="500" transform="translate(184.823 2429.214)" fill="none"/>
    </clipPath>
  </defs>
  <g id="Grupo_54" data-name="Grupo 54" transform="translate(-184.823 -2429.214)">
    <g id="Grupo_53" data-name="Grupo 53" clip-path="url(#clip-path)">
      <rect id="Rectángulo_35" data-name="Rectángulo 35" width="504.129" height="521.959" transform="translate(175.286 2419.214)" fill="#f2f2f2"/>
      <g id="Grupo_1050" data-name="Grupo 1050">
        <g id="Grupo_1049" data-name="Grupo 1049">
          <g id="Grupo_437" data-name="Grupo 437">
            <g id="Grupo_425" data-name="Grupo 425">
              <path id="Trazado_384" data-name="Trazado 384" d="M392.348,2611.309h-33.37a10.222,10.222,0,0,1-10.209-10.211v-77.562a10.222,10.222,0,0,1,10.209-10.211h33.37a10.223,10.223,0,0,1,10.212,10.211V2601.1A10.222,10.222,0,0,1,392.348,2611.309Zm-33.37-96.393a8.629,8.629,0,0,0-8.615,8.62V2601.1a8.629,8.629,0,0,0,8.618,8.62h33.371a8.628,8.628,0,0,0,8.619-8.62v-77.562a8.627,8.627,0,0,0-8.619-8.619Z"/>
            </g>
            <g id="Grupo_431" data-name="Grupo 431">
              <g id="Grupo_426" data-name="Grupo 426">
                <path id="Trazado_385" data-name="Trazado 385" d="M321.071,2786.615h118.4a16.662,16.662,0,0,0,16.662-16.66V2612.118a16.661,16.661,0,0,0-16.66-16.661H321.071c-14.555,0-16.661,7.459-16.661,16.661v157.838C304.41,2779.155,306.7,2786.615,321.071,2786.615Z"/>
                <path id="Trazado_386" data-name="Trazado 386" d="M444.158,2787.411H316.388a12.787,12.787,0,0,1-12.773-12.775v-167.2a12.79,12.79,0,0,1,12.773-12.776h127.77a12.791,12.791,0,0,1,12.773,12.776v167.2A12.787,12.787,0,0,1,444.158,2787.411Zm-127.77-191.16a11.2,11.2,0,0,0-11.182,11.184v167.2a11.193,11.193,0,0,0,11.182,11.183h127.77a11.194,11.194,0,0,0,11.184-11.183v-167.2a11.2,11.2,0,0,0-11.183-11.184Z"/>
              </g>
              <g id="Grupo_427" data-name="Grupo 427">
                <rect id="Rectángulo_148" data-name="Rectángulo 148" width="130.173" height="191.159" rx="11.294" transform="translate(325.962 2595.457)" fill="#fff"/>
                <path id="Trazado_387" data-name="Trazado 387" d="M445.041,2787.411H337.056a11.9,11.9,0,0,1-11.89-11.892V2606.551a11.906,11.906,0,0,1,11.89-11.892H445.041a11.906,11.906,0,0,1,11.89,11.892v168.968A11.9,11.9,0,0,1,445.041,2787.411Zm-107.985-191.16a10.31,10.31,0,0,0-10.3,10.3v168.968a10.307,10.307,0,0,0,10.3,10.3H445.041a10.31,10.31,0,0,0,10.3-10.3V2606.551a10.315,10.315,0,0,0-10.3-10.3Z" fill="#231f20"/>
              </g>
              <g id="Grupo_428" data-name="Grupo 428">
                <rect id="Rectángulo_149" data-name="Rectángulo 149" width="14.589" height="189.512" transform="translate(351.052 2596.281)" fill="#017dee"/>
              </g>
              <g id="Grupo_429" data-name="Grupo 429">
                <rect id="Rectángulo_150" data-name="Rectángulo 150" width="14.589" height="189.512" transform="translate(419.235 2596.281)" fill="#017dee"/>
              </g>
            </g>
            <g id="Grupo_434" data-name="Grupo 434">
              <g id="Grupo_432" data-name="Grupo 432">
                <path id="Trazado_389" data-name="Trazado 389" d="M422.323,2812.886a10.671,10.671,0,1,1,10.669-10.672h0A10.683,10.683,0,0,1,422.323,2812.886Zm0-19.749a9.079,9.079,0,1,0,9.078,9.08v0a9.088,9.088,0,0,0-9.078-9.077Z"/>
              </g>
              <g id="Grupo_433" data-name="Grupo 433">
                <path id="Trazado_390" data-name="Trazado 390" d="M349.15,2812.886a10.671,10.671,0,1,1,10.67-10.671h0A10.683,10.683,0,0,1,349.15,2812.886Zm0-19.749a9.079,9.079,0,1,0,9.077,9.08v0a9.089,9.089,0,0,0-9.077-9.077Z"/>
              </g>
            </g>
            <g id="Grupo_435" data-name="Grupo 435">
              <path id="Trazado_391" data-name="Trazado 391" d="M362.036,2518.03h27.257a3.91,3.91,0,0,0,3.91-3.908h0a3.911,3.911,0,0,0-3.91-3.91H362.036a3.909,3.909,0,0,0-3.907,3.91h0a3.906,3.906,0,0,0,3.906,3.908Z"/>
            </g>
            <g id="Grupo_436" data-name="Grupo 436">
              <rect id="Rectángulo_151" data-name="Rectángulo 151" width="49.188" height="25.326" rx="1.303" transform="translate(342.492 2649.127) rotate(-14.041)" fill="#fff"/>
              <path id="Trazado_392" data-name="Trazado 392" d="M350.639,2673.906a3.554,3.554,0,0,1-3.443-2.688l-4.809-19.227a3.556,3.556,0,0,1,2.582-4.3l42.375-10.6a3.558,3.558,0,0,1,4.306,2.582l4.807,19.227a3.557,3.557,0,0,1-2.582,4.3L351.5,2673.8A3.493,3.493,0,0,1,350.639,2673.906Zm37.566-35.33a1.891,1.891,0,0,0-.474.057l-42.375,10.6a1.962,1.962,0,0,0-1.423,2.376l4.809,19.225a1.958,1.958,0,0,0,2.373,1.426h0l42.376-10.6a1.958,1.958,0,0,0,1.426-2.373h0l-4.809-19.227a1.963,1.963,0,0,0-1.9-1.481Z" fill="#00ed85"/>
              <line id="Línea_158" data-name="Línea 158" y1="7.105" x2="27.976" transform="translate(354.531 2648.72)" fill="none" stroke="#00ed85" stroke-linecap="round" stroke-width="0.753"/>
              <line id="Línea_159" data-name="Línea 159" y1="7.105" x2="27.976" transform="translate(356.346 2655.065)" fill="none" stroke="#00ed85" stroke-linecap="round" stroke-width="0.753"/>
            </g>
          </g>
          <g id="Grupo_617" data-name="Grupo 617">
            <g id="Grupo_603" data-name="Grupo 603">
              <path id="Trazado_464" data-name="Trazado 464" d="M519.245,2643.472h-38.3a10.108,10.108,0,0,1-10.1-10.095v-63.029a10.108,10.108,0,0,1,10.1-10.094h38.3a10.1,10.1,0,0,1,10.094,10.094v63.03A10.105,10.105,0,0,1,519.245,2643.472Zm-38.3-80.935a7.818,7.818,0,0,0-7.81,7.808v63.03a7.817,7.817,0,0,0,7.81,7.808h38.3a7.817,7.817,0,0,0,7.808-7.808v-63.027a7.818,7.818,0,0,0-7.808-7.808Z"/>
            </g>
            <g id="Grupo_607" data-name="Grupo 607">
              <g id="Grupo_604" data-name="Grupo 604">
                <rect id="Rectángulo_152" data-name="Rectángulo 152" width="123.593" height="162.754" rx="34.635" transform="translate(443.552 2628.703)" fill="#231f20"/>
              </g>
              <g id="Grupo_605" data-name="Grupo 605">
                <rect id="Rectángulo_153" data-name="Rectángulo 153" width="109.297" height="160.502" rx="33.13" transform="translate(458.362 2629.687)" fill="#fff"/>
                <path id="Trazado_466" data-name="Trazado 466" d="M534.34,2791.336H491.682a34.5,34.5,0,0,1-34.464-34.467v-93.862a34.5,34.5,0,0,1,34.464-34.464h42.657a34.506,34.506,0,0,1,34.464,34.464v93.862A34.507,34.507,0,0,1,534.34,2791.336Zm-42.658-160.5a32.213,32.213,0,0,0-32.178,32.175v93.862a32.215,32.215,0,0,0,32.178,32.178h42.657a32.212,32.212,0,0,0,32.175-32.178v-93.862a32.211,32.211,0,0,0-32.175-32.176Z" fill="#231f20"/>
              </g>
            </g>
            <g id="Grupo_610" data-name="Grupo 610">
              <g id="Grupo_608" data-name="Grupo 608">
                <path id="Trazado_468" data-name="Trazado 468" d="M539.268,2812.721a9.433,9.433,0,1,1,9.436-9.433A9.433,9.433,0,0,1,539.268,2812.721Zm0-16.579a7.146,7.146,0,1,0,7.153,7.146,7.148,7.148,0,0,0-7.153-7.146Z"/>
              </g>
              <g id="Grupo_609" data-name="Grupo 609">
                <path id="Trazado_469" data-name="Trazado 469" d="M477.828,2812.721a9.433,9.433,0,1,1,9.438-9.433A9.433,9.433,0,0,1,477.828,2812.721Zm0-16.579a7.146,7.146,0,1,0,7.153,7.146,7.146,7.146,0,0,0-7.153-7.146Z"/>
              </g>
            </g>
            <g id="Grupo_611" data-name="Grupo 611">
              <path id="Trazado_470" data-name="Trazado 470" d="M488.651,2564.678h22.884a3.282,3.282,0,0,0,3.282-3.282h0a3.284,3.284,0,0,0-3.282-3.282H488.651a3.283,3.283,0,0,0-3.281,3.282h0a3.28,3.28,0,0,0,3.279,3.282Z"/>
            </g>
            <g id="Grupo_616" data-name="Grupo 616">
              <g id="Grupo_612" data-name="Grupo 612">
                <rect id="Rectángulo_154" data-name="Rectángulo 154" width="47.555" height="24.344" rx="1.226" transform="translate(494.757 2649.632)" fill="#f3af13"/>
              </g>
              <g id="Grupo_615" data-name="Grupo 615">
                <g id="Grupo_613" data-name="Grupo 613">
                  <path id="Trazado_471" data-name="Trazado 471" d="M535.148,2657.85H501.92a1.143,1.143,0,0,1,0-2.286h33.228a1.143,1.143,0,1,1,0,2.286Z" fill="#231f20"/>
                </g>
                <g id="Grupo_614" data-name="Grupo 614">
                  <path id="Trazado_472" data-name="Trazado 472" d="M535.148,2665.166H501.92a1.144,1.144,0,0,1,0-2.287h33.228a1.144,1.144,0,1,1,0,2.287Z" fill="#231f20"/>
                </g>
              </g>
            </g>
          </g>
          <circle id="Elipse_9" data-name="Elipse 9" cx="9.079" cy="9.079" r="9.079" transform="translate(340.069 2793.136)" fill="#fbfbfb"/>
          <circle id="Elipse_10" data-name="Elipse 10" cx="9.079" cy="9.079" r="9.079" transform="translate(413.243 2793.136)" fill="#fbfbfb"/>
          <circle id="Elipse_11" data-name="Elipse 11" cx="7.211" cy="7.211" r="7.211" transform="translate(470.624 2796.077)" fill="#fbfbfb"/>
          <circle id="Elipse_12" data-name="Elipse 12" cx="7.211" cy="7.211" r="7.211" transform="translate(532.063 2796.077)" fill="#fbfbfb"/>
        </g>
      </g>
    </g>
  </g>
</svg>
