<svg xmlns="http://www.w3.org/2000/svg" xmlns:xlink="http://www.w3.org/1999/xlink" width="483.001" height="500" viewBox="0 0 483.001 500">
  <defs>
    <linearGradient id="linear-gradient" y1="0.5" x2="1" y2="0.5" gradientUnits="objectBoundingBox">
      <stop offset="0" stop-color="#a4c4bc"/>
      <stop offset="0.233" stop-color="#9fc0b8"/>
      <stop offset="0.501" stop-color="#91b8ad"/>
      <stop offset="0.784" stop-color="#7aa99a"/>
      <stop offset="1" stop-color="#649b89"/>
    </linearGradient>
    <linearGradient id="linear-gradient-2" y1="0.5" x2="1" y2="0.5" gradientUnits="objectBoundingBox">
      <stop offset="0" stop-color="#f1e2d0"/>
      <stop offset="0.231" stop-color="#efdecb"/>
      <stop offset="0.497" stop-color="#e9d3bd"/>
      <stop offset="0.778" stop-color="#e1c0a6"/>
      <stop offset="1" stop-color="#d8ae8f"/>
    </linearGradient>
    <linearGradient id="linear-gradient-3" y1="0.5" x2="1" y2="0.5" gradientUnits="objectBoundingBox">
      <stop offset="0" stop-color="#ffc3b8"/>
      <stop offset="0.244" stop-color="#fcbeb3"/>
      <stop offset="0.524" stop-color="#f6b0a7"/>
      <stop offset="0.821" stop-color="#ec9994"/>
      <stop offset="1" stop-color="#e58885"/>
    </linearGradient>
    <linearGradient id="linear-gradient-4" y1="0.5" x2="1" y2="0.5" gradientUnits="objectBoundingBox">
      <stop offset="0" stop-color="#d0c6d9"/>
      <stop offset="0.292" stop-color="#ccc1d7"/>
      <stop offset="0.626" stop-color="#c2b3d4"/>
      <stop offset="0.98" stop-color="#b29cce"/>
      <stop offset="1" stop-color="#b19bce"/>
    </linearGradient>
  </defs>
  <g id="Grupo_1350" data-name="Grupo 1350" transform="translate(-1234.449 -3026.89)">
    <rect id="Rectángulo_19" data-name="Rectángulo 19" width="483.001" height="500" transform="translate(1234.449 3026.89)" fill="#f2f2f2"/>
    <g id="Grupo_119" data-name="Grupo 119" transform="translate(1329.453 3067.38)">
      <g id="Grupo_117" data-name="Grupo 117" transform="translate(40.682 38.436)">
        <path id="Trazado_38" data-name="Trazado 38" d="M137.475,322.714a1.416,1.416,0,0,1,1.49-.819c3.985.02,7.971.01,11.966,0a3.248,3.248,0,0,1,2.723,1.125.337.337,0,0,0,.3.059,3.5,3.5,0,0,1,2.012-.02.362.362,0,0,0,.3-.1,3.032,3.032,0,0,1,2.387-1.055q6.274-.015,12.548,0a1.1,1.1,0,0,1,1.194,1.213c.01.533,0,1.075.01,1.608a1.274,1.274,0,0,1-.395.947c-.493.483-.987.967-1.46,1.47a1.076,1.076,0,0,0-.247.563c-.069.513-.039,1.045-.128,1.558a4.521,4.521,0,0,1-4.1,3.877,27.5,27.5,0,0,1-4.6.01,5.155,5.155,0,0,1-4.676-4.311c-.187-.957-.355-1.924-.542-2.88a.427.427,0,0,0-.148-.237,2.114,2.114,0,0,0-2.289-.03.574.574,0,0,0-.187.325c-.217,1.056-.385,2.121-.621,3.167a5.164,5.164,0,0,1-4.686,3.975,31.082,31.082,0,0,1-4.7-.04,4.575,4.575,0,0,1-3.966-4.212,3.607,3.607,0,0,1-.039-.651,1.663,1.663,0,0,0-.7-1.549,7.1,7.1,0,0,1-.819-.819c-.227-.247-.414-.532-.621-.789Zm25.648,1.4v.01c-1.075,0-2.15-.03-3.236.01a1.42,1.42,0,0,0-1.42,1.756c.158.937.345,1.865.552,2.8a2.984,2.984,0,0,0,2.733,2.279c1.322.04,2.654.04,3.975,0a2.407,2.407,0,0,0,2.289-2.18c.069-.809.118-1.628.148-2.446a1.974,1.974,0,0,0-2.141-2.23C165.056,324.1,164.089,324.115,163.123,324.115Zm-16.355,0c-1.006,0-2.022-.01-3.028,0a1.943,1.943,0,0,0-2.032,2.131c.02.809.089,1.618.138,2.417a2.419,2.419,0,0,0,2.3,2.308c1.322.04,2.654.04,3.975,0a2.992,2.992,0,0,0,2.732-2.288c.188-.858.365-1.727.523-2.594a1.513,1.513,0,0,0-1.638-1.973C148.75,324.1,147.754,324.115,146.767,324.115Zm-7.162.918a.811.811,0,0,0,.839-.8.83.83,0,0,0-.8-.838.84.84,0,0,0-.849.809A.811.811,0,0,0,139.606,325.032Zm30.649,0a.811.811,0,0,0,.809-.829.83.83,0,0,0-.829-.809.84.84,0,0,0-.819.838A.811.811,0,0,0,170.255,325.032Z" transform="translate(-137.475 -321.895)"/>
      </g>
      <path id="Trazado_39" data-name="Trazado 39" d="M145.3,351.639c-.631-.138-1.272-.237-1.884-.414a8.431,8.431,0,0,1-6.392-8.069,28.89,28.89,0,0,1,1.864-12.193,11.255,11.255,0,0,1,4.992-6.047,9.939,9.939,0,0,1,4.9-1.174,3.865,3.865,0,0,1,1.618.552c.8.434,1.539.977,2.308,1.46a11.967,11.967,0,0,0,13.524-.01c.621-.395,1.263-.76,1.854-1.2a4.43,4.43,0,0,1,3.541-.72,9.983,9.983,0,0,1,7.635,5.495,22.64,22.64,0,0,1,2.446,8.75,42.1,42.1,0,0,1,.207,4.735,8.639,8.639,0,0,1-7.961,8.74,1.5,1.5,0,0,0-.345.1Zm14.156-3.166v-.01c4.459,0,8.917.039,13.366-.01,3.709-.049,5.978-2.407,5.948-6.116a39.779,39.779,0,0,0-.227-4.2,19.4,19.4,0,0,0-2-7.211A7,7,0,0,0,171.506,327a2.324,2.324,0,0,0-2.022.395,17.034,17.034,0,0,1-1.5.987,14.943,14.943,0,0,1-15.438.907c-1.243-.612-2.368-1.43-3.551-2.151a1.13,1.13,0,0,0-.572-.227,6.473,6.473,0,0,0-4.459,1.844,10.25,10.25,0,0,0-2.239,3.591,27.173,27.173,0,0,0-1.559,10.614,5.24,5.24,0,0,0,2.654,4.636,7.263,7.263,0,0,0,3.8.878Z" transform="translate(-101.151 -267.144)"/>
      <g id="Grupo_118" data-name="Grupo 118" transform="translate(45.397 31.413)">
        <path id="Trazado_40" data-name="Trazado 40" d="M146.771,321.506a9.693,9.693,0,0,0-8.375,4.419h4.765a2.912,2.912,0,0,1,2.456,1.006.311.311,0,0,0,.266.059,3.16,3.16,0,0,1,1.815-.02.329.329,0,0,0,.266-.089,2.745,2.745,0,0,1,2.151-.957h4.705A9.884,9.884,0,0,0,146.771,321.506Z" transform="translate(-134.026 -318.34)" fill="none"/>
        <path id="Trazado_41" data-name="Trazado 41" d="M153,329.281a4.633,4.633,0,0,1-4.212-3.887c-.177-.858-.325-1.726-.493-2.594a.4.4,0,0,0-.138-.217,1.9,1.9,0,0,0-2.062-.02.527.527,0,0,0-.168.286c-.2.957-.345,1.914-.562,2.861a4.67,4.67,0,0,1-4.222,3.591c-.927.059-1.855.069-2.782.039a9.79,9.79,0,0,0,17.155.02A21.423,21.423,0,0,1,153,329.281Z" transform="translate(-134.363 -311.554)" fill="none"/>
        <path id="Trazado_42" data-name="Trazado 42" d="M141.631,328.769a9.693,9.693,0,0,1,8.375-4.419,9.884,9.884,0,0,1,8.05,4.419h3.591a13.108,13.108,0,0,0-8.484-7.161c-.7-.168-1.4-.286-2.1-.424h-2.427c-.493.088-1,.167-1.49.266a12.847,12.847,0,0,0-7.211,4.33,11.509,11.509,0,0,0-1.9,2.989Z" transform="translate(-137.262 -321.183)"/>
        <path id="Trazado_43" data-name="Trazado 43" d="M159.1,324.291a9.79,9.79,0,0,1-17.155-.02c-.483-.01-.977-.039-1.46-.079a3.832,3.832,0,0,1-2.535-1.351,10.656,10.656,0,0,0,.7,1.973,13.032,13.032,0,0,0,12.7,7.645,12.72,12.72,0,0,0,10.141-6.018,11.231,11.231,0,0,0,1.48-3.137,3.956,3.956,0,0,1-2.239.908C160.188,324.252,159.645,324.281,159.1,324.291Z" transform="translate(-137.953 -306.486)"/>
      </g>
      <path id="Trazado_44" data-name="Trazado 44" d="M191.424,433.9a57.234,57.234,0,0,1-36.558-12.469,55.255,55.255,0,0,1-20.429-34.23,58.308,58.308,0,0,1,5.573-38.393c7.763-15.132,20.143-24.721,36.43-28.745,17.914-4.439,34.881-1.864,50.171,9.075,11.946,8.543,19.2,20.292,22.057,34.565,3.344,16.71.178,32.307-9.746,46.255a53.487,53.487,0,0,1-34.644,22.225C200.036,432.994,195.715,433.339,191.424,433.9Zm-3.107-95.913c-8.977-.05-18.743,4.873-25.737,14.767-6.777,9.578-8.454,20.449-6.116,31.793,1.776,8.641,5.948,16.089,13.09,21.544a35.181,35.181,0,0,0,26.112,7.359c10.308-1.1,18.457-5.682,24.523-14,6.471-8.878,8.434-18.772,6.925-29.643C224.549,351.385,209.753,337.781,188.317,337.989Z" transform="translate(-133.351 -317.999)" fill="url(#linear-gradient)"/>
    </g>
    <g id="Grupo_120" data-name="Grupo 120" transform="translate(1509.018 3370.503)">
      <path id="Trazado_45" data-name="Trazado 45" d="M172.995,351.349c1.046.2,2.111.325,3.137.6a16.478,16.478,0,0,1,11.926,14.313,16.875,16.875,0,0,1-1.48,7.971,66.2,66.2,0,0,1-6.619,11.828c-.385.562-.76,1.115-1.174,1.706.868.227,1.687.425,2.5.681a14.35,14.35,0,0,1,4.646,2.229,4.974,4.974,0,0,1,2.18,3.512,4.6,4.6,0,0,1-1.874,4.035,13.777,13.777,0,0,1-5.643,2.624,34.69,34.69,0,0,1-18.161-.168,13.484,13.484,0,0,1-5.031-2.437,4.429,4.429,0,0,1-.1-7.221,12.217,12.217,0,0,1,2.259-1.479,18.8,18.8,0,0,1,4.755-1.618c.158-.039.306-.089.513-.148-.207-.306-.385-.572-.572-.838a71.167,71.167,0,0,1-6.925-12.005,19.582,19.582,0,0,1-1.746-5.889,15.476,15.476,0,0,1,2.959-10.861,16.1,16.1,0,0,1,11.749-6.757c.109-.02.217-.059.326-.079Zm-1.2,40.849c.158-.2.276-.315.365-.454,2.289-3.226,4.636-6.4,6.836-9.677a50.525,50.525,0,0,0,5.021-9.391,12.412,12.412,0,0,0,.907-7.428c-1.263-5.573-4.607-9.292-10.19-10.565-5.554-1.272-10.18.661-13.662,5.11a11.985,11.985,0,0,0-2.4,9.776,21.417,21.417,0,0,0,2.111,5.781,91.876,91.876,0,0,0,8.582,13.643C170.144,390.058,170.953,391.093,171.792,392.2Zm1.164,6.817c.917-.1,2.387-.207,3.828-.414a19.675,19.675,0,0,0,6.195-1.776,6.835,6.835,0,0,0,1.8-1.342,1.154,1.154,0,0,0,0-1.765,6.253,6.253,0,0,0-1.361-1.135,17.2,17.2,0,0,0-6.284-2.052.7.7,0,0,0-.513.266c-1.184,1.5-2.338,3.019-3.522,4.518a1.489,1.489,0,0,1-2.565.02c-1.184-1.5-2.348-3.019-3.5-4.538a.565.565,0,0,0-.661-.257c-1.272.326-2.575.582-3.827.967a8.136,8.136,0,0,0-3.532,1.992,1.394,1.394,0,0,0-.01,2.21,2.263,2.263,0,0,0,.523.454,22.726,22.726,0,0,0,2.555,1.263A31.253,31.253,0,0,0,172.955,399.015Z" transform="translate(-113.501 -318.713)"/>
      <path id="Trazado_46" data-name="Trazado 46" d="M176.852,362.416a10.383,10.383,0,1,1-10.407-10.466A10.4,10.4,0,0,1,176.852,362.416Zm-17.8,0a7.414,7.414,0,1,0,7.458-7.5A7.42,7.42,0,0,0,159.056,362.416Z" transform="translate(-108.164 -313.385)"/>
      <path id="Trazado_47" data-name="Trazado 47" d="M209.3,463.934a57.244,57.244,0,0,1-36.558-12.459,55.256,55.256,0,0,1-20.43-34.23,58.347,58.347,0,0,1,5.574-38.4c7.763-15.122,20.143-24.711,36.43-28.735,17.914-4.439,34.891-1.864,50.171,9.076,11.946,8.542,19.2,20.281,22.057,34.555,3.344,16.711.177,32.316-9.746,46.255a53.5,53.5,0,0,1-34.644,22.235C217.914,463.036,213.593,463.381,209.3,463.934Zm-3.107-95.9c-8.977-.049-18.743,4.863-25.737,14.767-6.777,9.579-8.454,20.449-6.116,31.793,1.776,8.641,5.948,16.079,13.09,21.534a35.147,35.147,0,0,0,26.111,7.369c10.308-1.1,18.457-5.682,24.523-14.008,6.471-8.868,8.434-18.762,6.925-29.633C242.427,381.427,227.63,367.823,206.195,368.031Z" transform="translate(-151.229 -348.04)" fill="url(#linear-gradient-2)"/>
    </g>
    <g id="Grupo_122" data-name="Grupo 122" transform="translate(1509.018 3067.38)">
      <path id="Trazado_48" data-name="Trazado 48" d="M209.3,433.9a57.253,57.253,0,0,1-36.558-12.469,55.254,55.254,0,0,1-20.43-34.23,58.308,58.308,0,0,1,5.574-38.393c7.763-15.132,20.143-24.721,36.43-28.745,17.914-4.439,34.891-1.864,50.171,9.075,11.946,8.543,19.2,20.292,22.057,34.565,3.344,16.71.177,32.307-9.746,46.255a53.487,53.487,0,0,1-34.644,22.225C217.914,432.994,213.593,433.339,209.3,433.9Zm-3.107-95.913c-8.977-.05-18.743,4.873-25.737,14.767-6.777,9.578-8.454,20.449-6.116,31.793,1.776,8.641,5.948,16.089,13.09,21.544a35.181,35.181,0,0,0,26.111,7.359c10.308-1.1,18.457-5.682,24.523-14,6.471-8.878,8.434-18.772,6.925-29.643C242.427,351.385,227.63,337.781,206.195,337.989Z" transform="translate(-151.229 -317.999)" fill="url(#linear-gradient-3)"/>
      <g id="Grupo_121" data-name="Grupo 121" transform="translate(28.106 33.86)">
        <path id="Trazado_49" data-name="Trazado 49" d="M164.3,321.431a1.977,1.977,0,0,1,.562.177,4.453,4.453,0,0,1,.769.572c.286.3.552.632.809.957a.724.724,0,0,0,.868.247c.414-.128.829-.257,1.263-.365a2.011,2.011,0,0,1,2.565,1.894c.03.395.059.78.089,1.174a.73.73,0,0,0,.552.73q.592.193,1.184.415a2.009,2.009,0,0,1,1.055,3c-.217.375-.454.74-.681,1.1a.7.7,0,0,0,.02.838c.247.345.474.691.71,1.036a2.006,2.006,0,0,1-.927,3.1c-.365.158-.73.316-1.1.454a.762.762,0,0,0-.533.8c0,.454-.01.9-.049,1.342a2,2,0,0,1-2.516,1.805l-1.223-.3a.709.709,0,0,0-.839.286c-.247.345-.513.671-.769,1a2,2,0,0,1-3.186.079c-.276-.316-.552-.632-.819-.957a.722.722,0,0,0-.858-.246c-.414.128-.839.256-1.263.365a2.018,2.018,0,0,1-2.575-1.894c-.03-.395-.059-.78-.079-1.174a.749.749,0,0,0-.552-.73c-.4-.128-.789-.266-1.184-.415a2.012,2.012,0,0,1-1.065-3c.227-.375.454-.74.681-1.1a.681.681,0,0,0-.02-.838l-.71-1.036a2.017,2.017,0,0,1,.927-3.1c.365-.158.73-.316,1.1-.454a.76.76,0,0,0,.542-.8c0-.454,0-.9.039-1.342a2,2,0,0,1,2.516-1.805c.414.1.819.2,1.223.3a.718.718,0,0,0,.849-.286c.237-.325.483-.631.72-.947a2.074,2.074,0,0,1,1.282-.838l.049-.03Zm-8.74,13.386a.708.708,0,0,0,.493.612c.395.148.8.276,1.194.424a2.018,2.018,0,0,1,1.44,1.914c.03.4.069.819.1,1.223a.636.636,0,0,0,.868.6c.434-.118.868-.257,1.3-.375a2.006,2.006,0,0,1,2.151.661c.256.3.513.6.76.9.434.5.829.5,1.233-.02.237-.316.473-.632.72-.937a2,2,0,0,1,2.131-.769c.434.1.878.217,1.322.315a.637.637,0,0,0,.819-.641c.02-.434.02-.878.039-1.312a1.977,1.977,0,0,1,1.154-1.815c.424-.207.878-.365,1.322-.552a.654.654,0,0,0,.316-1.065c-.217-.325-.434-.641-.651-.957a2.058,2.058,0,0,1-.069-2.476c.207-.326.414-.661.622-1a.655.655,0,0,0-.365-1.036c-.385-.138-.779-.276-1.164-.414a2.028,2.028,0,0,1-1.44-1.9c-.03-.414-.059-.829-.1-1.233a.636.636,0,0,0-.868-.6c-.424.118-.848.256-1.282.365a1.969,1.969,0,0,1-2.18-.671c-.266-.3-.513-.6-.779-.907a.666.666,0,0,0-1.174.02c-.237.316-.474.622-.71.937a2.073,2.073,0,0,1-2.249.789c-.414-.109-.829-.217-1.253-.306a.628.628,0,0,0-.8.622c-.02.444-.03.888-.049,1.332a1.969,1.969,0,0,1-1.144,1.815c-.444.207-.9.375-1.351.562a.656.656,0,0,0-.306,1.046c.227.335.464.661.69,1a2.043,2.043,0,0,1,.059,2.407c-.207.345-.424.691-.631,1.036A3.047,3.047,0,0,0,155.557,334.817Z" transform="translate(-154.078 -321.431)"/>
        <path id="Trazado_50" data-name="Trazado 50" d="M162.336,322.825a.728.728,0,0,1-.237.513c-.424.434-.838.878-1.263,1.322-1.618,1.7-3.236,3.4-4.853,5.1a.808.808,0,0,1-.562.306.662.662,0,0,1-.631-.355.641.641,0,0,1,.039-.72.924.924,0,0,1,.158-.187q3.034-3.2,6.077-6.383a.726.726,0,0,1,.8-.266A.679.679,0,0,1,162.336,322.825Z" transform="translate(-148.587 -315.348)"/>
        <path id="Trazado_51" data-name="Trazado 51" d="M156.036,322.131a1.376,1.376,0,1,1-1.351,1.4A1.389,1.389,0,0,1,156.036,322.131Z" transform="translate(-148.707 -315.226)"/>
        <path id="Trazado_52" data-name="Trazado 52" d="M157.951,323.973a1.368,1.368,0,0,1-1.342,1.4,1.383,1.383,0,0,1-1.4-1.351,1.369,1.369,0,0,1,1.352-1.391A1.354,1.354,0,0,1,157.951,323.973Z" transform="translate(-144.063 -310.794)"/>
      </g>
      <path id="Trazado_53" data-name="Trazado 53" d="M211.588,332.173c-.454.04-.917,0-1.361,0-.049-.641-.069-1.213-.138-1.766a7.565,7.565,0,0,0-4.834-6.55,13.866,13.866,0,0,0-4.6-.967,20.634,20.634,0,0,0-9.115,1.233,8.035,8.035,0,0,0-5.347,6.195c-.118.6-.148,1.223-.207,1.815h-3.906c-.069-.641-.1-1.243-.207-1.835a7.887,7.887,0,0,0-5.248-6.135,21.064,21.064,0,0,0-3.137-.947,2.164,2.164,0,0,1-.878.631c-.365.158-.73.316-1.1.454a.762.762,0,0,0-.533.8c0,.424-.01.848-.039,1.263a15.71,15.71,0,0,1,3.8.8c2.032.73,3.512,1.983,3.778,4.291a6.905,6.905,0,0,1-.533,3.423,10.1,10.1,0,0,1-8,6.56,6.3,6.3,0,0,1-6.047-2.289,10.566,10.566,0,0,1-2.4-8.71,4.6,4.6,0,0,1,.484-1.549l-.444-.533a.722.722,0,0,0-.858-.246c-.414.128-.839.256-1.263.365a2.09,2.09,0,0,1-1.046.02,9.453,9.453,0,0,0-.375,1.578c-.1.681-.138,1.381-.207,2.1h-1.766a1.763,1.763,0,1,0-.01,3.512h2.269a13.516,13.516,0,0,0,3.758,6.609l-1.006,1.4c-.335.464-.671.908-.986,1.381a1.753,1.753,0,1,0,2.93,1.924c.661-.937,1.332-1.865,2-2.792a10.064,10.064,0,0,0,6.57.5,13.813,13.813,0,0,0,9.638-8.5.706.706,0,0,1,.789-.533c1.4.03,2.8.02,4.2,0a.522.522,0,0,1,.592.4,12.236,12.236,0,0,0,2.348,4.005c2.663,3.068,5.938,4.952,10.092,4.913a26.6,26.6,0,0,0,3.926-.612l.247.316c.582.809,1.144,1.627,1.746,2.417a1.634,1.634,0,0,0,1.805.661,1.548,1.548,0,0,0,1.282-1.411,2.48,2.48,0,0,0-.365-1.41c-.572-.917-1.243-1.776-1.884-2.673a13.5,13.5,0,0,0,3.748-6.6c.631,0,1.243-.04,1.835.01a2.14,2.14,0,0,0,2.358-1.3v-.927A2.121,2.121,0,0,0,211.588,332.173Zm-7.093,6.57a6.7,6.7,0,0,1-7.921,2.348,10.047,10.047,0,0,1-6.964-8.178,4.741,4.741,0,0,1,2.713-5.307,14.084,14.084,0,0,1,5.82-1.263c.3-.01.582,0,.878,0l.01-.1c1.194.138,2.407.207,3.581.444,2.575.513,3.749,1.766,4.005,4.37A10.554,10.554,0,0,1,204.5,338.743Z" transform="translate(-125.45 -275.112)"/>
    </g>
    <g id="Grupo_125" data-name="Grupo 125" transform="translate(1329.453 3218.942)">
      <path id="Trazado_54" data-name="Trazado 54" d="M191.424,448.923a57.291,57.291,0,0,1-36.558-12.469,55.257,55.257,0,0,1-20.429-34.23,58.309,58.309,0,0,1,5.573-38.393c7.763-15.132,20.143-24.72,36.43-28.745,17.914-4.439,34.881-1.865,50.171,9.075,11.946,8.543,19.2,20.291,22.057,34.566,3.344,16.7.178,32.306-9.746,46.255a53.487,53.487,0,0,1-34.644,22.225C200.036,448.015,195.715,448.361,191.424,448.923Zm-3.107-95.913c-8.977-.049-18.743,4.873-25.737,14.767-6.777,9.579-8.454,20.449-6.116,31.793,1.776,8.641,5.948,16.079,13.09,21.544a35.184,35.184,0,0,0,26.112,7.359c10.308-1.1,18.457-5.682,24.523-14.008,6.471-8.868,8.434-18.762,6.925-29.633C224.549,366.406,209.753,352.8,188.317,353.01Z" transform="translate(-133.351 -333.02)" fill="url(#linear-gradient-4)"/>
      <g id="Grupo_123" data-name="Grupo 123" transform="translate(38.464 31.658)">
        <path id="Trazado_55" data-name="Trazado 55" d="M141.264,388.809a13.33,13.33,0,0,1-2.131-.947,4.354,4.354,0,0,1-1.854-4.34q.621-6.792,1.223-13.594l1.3-14.323c.1-1.1.177-2.219.335-3.314a4.8,4.8,0,0,1,4.784-4.163c.868-.01,1.746,0,2.7,0,0-1.016-.03-1.992,0-2.959a9.468,9.468,0,0,1,18.713-1.46,23.815,23.815,0,0,1,.237,3.67c.01.237,0,.474,0,.75.829,0,1.6.02,2.367,0a4.942,4.942,0,0,1,5.2,4.775q.8,9,1.618,17.993c.385,4.242.779,8.493,1.134,12.735a4.528,4.528,0,0,1-3.808,5.09.606.606,0,0,0-.177.089Zm6.333-37.781H145.16a2.09,2.09,0,0,0-2.259,2.032c-.089.868-.158,1.736-.237,2.6-.335,3.65-.661,7.29-.986,10.94-.3,3.275-.592,6.54-.888,9.815-.227,2.555-.454,5.119-.671,7.675a1.522,1.522,0,0,0,1.016,1.716,3.455,3.455,0,0,0,1.144.207q14.738.015,29.485,0c.119,0,.237.01.355,0a1.786,1.786,0,0,0,1.815-2c-.049-.809-.128-1.608-.207-2.407q-.429-4.853-.858-9.717-.5-5.46-.986-10.94c-.237-2.654-.474-5.317-.73-7.97a1.96,1.96,0,0,0-1.558-1.874c-1.006-.089-2.032-.02-3.127-.02v.552c0,1.884,0,3.759.01,5.643a1.444,1.444,0,0,1-.829,1.47,1.393,1.393,0,0,1-2-1.312c-.02-1.933-.01-3.867-.01-5.8v-.572H150.428v.6c0,1.894.01,3.8,0,5.7a1.414,1.414,0,1,1-2.821.039c-.03-1.49-.01-2.979-.01-4.469Zm16.178-2.92c0-.917.02-1.776-.01-2.624a6.618,6.618,0,0,0-4.607-6.106,6.7,6.7,0,0,0-7.241,2.22c-1.568,1.943-1.49,4.2-1.381,6.51Z" transform="translate(-137.25 -336.229)"/>
      </g>
      <g id="Grupo_124" data-name="Grupo 124" transform="translate(48.977 56.622)">
        <path id="Trazado_56" data-name="Trazado 56" d="M147.6,357.29a9.132,9.132,0,0,1-5.84-1.992,8.847,8.847,0,0,1-3.275-5.475,9.361,9.361,0,0,1,.9-6.136,8.588,8.588,0,0,1,5.82-4.6,9.372,9.372,0,0,1,8.03,1.45,8.66,8.66,0,0,1,3.522,5.524,9.2,9.2,0,0,1-1.559,7.4,8.531,8.531,0,0,1-5.534,3.551C148.981,357.142,148.29,357.2,147.6,357.29Zm-.474-15.142a4.96,4.96,0,0,0-3.985,2.289,6.059,6.059,0,0,0-.947,4.923,5.515,5.515,0,0,0,6.067,4.469,5.151,5.151,0,0,0,3.8-2.17,6.047,6.047,0,0,0,1.065-4.587A5.678,5.678,0,0,0,147.126,342.148Z" transform="translate(-138.316 -338.76)"/>
        <path id="Trazado_57" data-name="Trazado 57" d="M143.63,341.757a2.249,2.249,0,0,1-2.269,2.347,2.284,2.284,0,0,1-2.338-2.347,2.318,2.318,0,0,1,2.348-2.3A2.243,2.243,0,0,1,143.63,341.757Z" transform="translate(-132.048 -332.568)"/>
      </g>
    </g>
    <g id="Grupo_127" data-name="Grupo 127" transform="translate(1509.018 3218.942)">
      <path id="Trazado_58" data-name="Trazado 58" d="M209.3,448.923a57.31,57.31,0,0,1-36.558-12.469,55.256,55.256,0,0,1-20.43-34.23,58.309,58.309,0,0,1,5.574-38.393c7.763-15.132,20.143-24.72,36.43-28.745,17.914-4.439,34.891-1.865,50.171,9.075,11.946,8.543,19.2,20.291,22.057,34.566,3.344,16.7.177,32.306-9.746,46.255a53.488,53.488,0,0,1-34.644,22.225C217.914,448.015,213.593,448.361,209.3,448.923Zm-3.107-95.913c-8.977-.049-18.743,4.873-25.737,14.767-6.777,9.579-8.454,20.449-6.116,31.793,1.776,8.641,5.948,16.079,13.09,21.544a35.184,35.184,0,0,0,26.111,7.359c10.308-1.1,18.457-5.682,24.523-14.008,6.471-8.868,8.434-18.762,6.925-29.633C242.427,366.406,227.63,352.8,206.195,353.01Z" transform="translate(-151.229 -333.02)" fill="url(#linear-gradient)"/>
      <g id="Grupo_126" data-name="Grupo 126" transform="translate(33.175 30.022)">
        <path id="Trazado_59" data-name="Trazado 59" d="M171.352,359.554l.266-.03,3.413-.1c3.3-.109,6.708-.217,10.062-.306a18.1,18.1,0,0,0,6.639-1.49,24.961,24.961,0,0,0,4.4-2.7l.375-.266c.838-.592,1.687-1.2,2.515-1.785,2-1.411,4.064-2.871,6.067-4.36a4.649,4.649,0,0,0,1.805-5.12,4.959,4.959,0,0,0-7.477-3.038c-.967.612-1.924,1.263-2.861,1.884-.414.286-.848.582-1.272.858l-1.43.957-.513.335-.01-.02-.069-.1-.1-.148a4.82,4.82,0,0,0-4.2-2.279c-.484-.01-.977,0-1.46,0-.7,0-1.421,0-2.121-.02a1.443,1.443,0,0,1-.829-.306,11.608,11.608,0,0,0-9.4-2.594,11.286,11.286,0,0,0-7.832,5.317,3.132,3.132,0,0,1-.621.7c-.109.109-.237.227-.345.345l-.029.03-.01-.03-.1-.187-.069-.138c-.493-1.312-1.125-1.618-2.417-1.174-.74.256-1.48.513-2.21.769-1.786.612-3.63,1.243-5.445,1.845a2.094,2.094,0,0,0-1.48,1.243v.7l.039.089.079.188c.779,2.279,1.558,4.548,2.338,6.826q1.332,3.921,2.683,7.842a1.541,1.541,0,0,0,2.21,1.085l5.031-1.716,2.811-.967c1.223-.414,1.5-.828,1.421-2.1l-.01-.03h.03Zm-3.571-.365-5.6,1.914v-.03l-4.153-12.124.02-.01,5.583-1.9.02-.01.01.02L167.8,359.18Zm2.821-2.643h-.168a.415.415,0,0,1-.454-.326c-.681-2.022-1.361-4.015-2.081-6.126l-.681-1.973-.01-.03.03-.01a6.317,6.317,0,0,0,3.038-2.742l.148-.207a8.062,8.062,0,0,1,5.879-3.324,8.344,8.344,0,0,1,6.59,2.338,2.412,2.412,0,0,0,1.854.74c1.44-.04,2.91-.03,4.2-.01a1.949,1.949,0,0,1,1.539.7,1.7,1.7,0,0,1,.306,1.48,1.746,1.746,0,0,1-1.854,1.351h-8.2a3.01,3.01,0,0,0-.809.1,1.494,1.494,0,0,0,.286,2.91,3.223,3.223,0,0,0,.434.02h8.178a4.8,4.8,0,0,0,4.853-3.4,1.047,1.047,0,0,1,.375-.464c2.673-1.805,4.853-3.256,6.856-4.587a1.962,1.962,0,0,1,2.752.483,1.935,1.935,0,0,1-.523,2.742L201.4,347.47c-2.88,2.062-5.86,4.192-8.819,6.234a13.957,13.957,0,0,1-7.684,2.4c-3.5.089-7.073.207-10.516.316C173.118,356.467,171.865,356.506,170.6,356.546Z" transform="translate(-154.592 -312.076)"/>
        <path id="Trazado_60" data-name="Trazado 60" d="M167.824,336.191a13.017,13.017,0,1,0,4.942.256c-.434-.108-.888-.2-1.332-.276l-.612-.109h-2.259l-.237.04Zm1.786,2.9h.049a9.934,9.934,0,0,1,.1,19.867h-.079a9.934,9.934,0,0,1-.069-19.867Z" transform="translate(-135.675 -336.063)"/>
        <path id="Trazado_61" data-name="Trazado 61" d="M159.87,350.87a.73.73,0,0,1,.385.454,1.5,1.5,0,0,0,1.43,1.243h.039a1.419,1.419,0,0,0,1.421-1.184.694.694,0,0,1,.493-.572,3.392,3.392,0,0,0,1.924-1.944,3.483,3.483,0,0,0-1.115-4.094c-.592-.454-1.193-.9-1.776-1.332s-1.164-.868-1.746-1.312c-.187-.138-.395-.513-.316-.7.109-.266.523-.414.651-.454a1.209,1.209,0,0,1,.464-.03c.089,0,.178.01.266.01a.778.778,0,0,1,.927.78,1.4,1.4,0,0,0,1.6,1.272,1.535,1.535,0,0,0,1.282-1.776,3.407,3.407,0,0,0-2.111-2.89.832.832,0,0,1-.562-.641,1.4,1.4,0,0,0-1.411-1.134h-.03a1.419,1.419,0,0,0-1.391,1.194.623.623,0,0,1-.464.542,3.524,3.524,0,0,0-.7,6.156l.789.592c.779.572,1.588,1.174,2.378,1.756l.118.089c.256.177.562.385.434.828-.138.464-.493.454-.8.444h-.217a1.185,1.185,0,0,1-.266,0h-.247a.669.669,0,0,1-.779-.681,1.665,1.665,0,0,0-.622-1.1,1.346,1.346,0,0,0-1.026-.247,1.516,1.516,0,0,0-1.253,1.746A3.593,3.593,0,0,0,159.87,350.87Z" transform="translate(-127.712 -331.604)"/>
      </g>
    </g>
    <g id="Grupo_129" data-name="Grupo 129" transform="translate(1329.453 3370.286)">
      <path id="Trazado_62" data-name="Trazado 62" d="M191.424,463.922a57.281,57.281,0,0,1-36.558-12.459,55.305,55.305,0,0,1-20.429-34.24,58.31,58.31,0,0,1,5.573-38.393c7.763-15.132,20.143-24.721,36.43-28.745,17.914-4.439,34.881-1.864,50.171,9.076,11.946,8.542,19.2,20.291,22.057,34.565,3.344,16.71.178,32.316-9.746,46.255a53.485,53.485,0,0,1-34.644,22.225C200.036,463.024,195.715,463.359,191.424,463.922Zm-3.107-95.913c-8.977-.04-18.743,4.873-25.737,14.767-6.777,9.588-8.454,20.449-6.116,31.793,1.776,8.641,5.948,16.089,13.09,21.544a35.184,35.184,0,0,0,26.112,7.359c10.308-1.1,18.457-5.682,24.523-14,6.471-8.878,8.434-18.772,6.925-29.643C224.549,381.415,209.753,367.8,188.317,368.009Z" transform="translate(-133.351 -348.019)" fill="url(#linear-gradient-3)"/>
      <g id="Grupo_128" data-name="Grupo 128" transform="translate(38.232 31.798)">
        <path id="Trazado_63" data-name="Trazado 63" d="M154.483,351.242h1.46a2.232,2.232,0,0,0,.365.1,5.73,5.73,0,0,1,4.686,4.587c.217.967.316,1.963.474,2.949l.286,1.805.73-.641c.986-.848,1.943-1.746,2.969-2.565a5.862,5.862,0,0,1,8.651,7.566c-.355.582-.819,1.1-1.243,1.657.158.069.345.148.542.217,1.342.483,2.7.967,4.045,1.47a4.363,4.363,0,0,1,2.723,5.781c-.612,1.716-1.243,3.423-1.874,5.13a1.486,1.486,0,0,1-2.121.967c-.3-.108-.592-.207-.927-.325v.661q0,7.813-.01,15.625a4.328,4.328,0,0,1-4.478,4.548q-14.4.03-28.785-.01a4.833,4.833,0,0,1-2-.454,4.229,4.229,0,0,1-2.466-4.153V380.195c0-1.332-.01-2.673,0-4.015a1.413,1.413,0,0,1,1.361-1.47,5.819,5.819,0,0,1,.582-.02H160.5a.978.978,0,0,0-.454-.3c-1.46-.523-2.91-1.055-4.37-1.578q-8.626-3.137-17.273-6.284a1.472,1.472,0,0,1-1.016-2.16c.6-1.667,1.2-3.324,1.815-4.992a4.444,4.444,0,0,1,2.9-2.89,4.569,4.569,0,0,1,2.989.138c1.44.523,2.87,1.046,4.33,1.568,0-.158.01-.266,0-.375a5.635,5.635,0,0,1,2.713-5.643A13.522,13.522,0,0,1,154.483,351.242ZM140.436,377.61c-.01.168-.02.276-.02.394q-.015,9.13,0,18.269a1.45,1.45,0,0,0,1.618,1.608h9.549c.128,0,.247-.01.395-.02V377.61Zm20.321,20.242c.118.01.217.03.316.03h9.736a1.433,1.433,0,0,0,1.529-1.558q0-8.538.01-17.066a.487.487,0,0,0-.4-.542c-.868-.3-1.726-.641-2.594-.927a3.7,3.7,0,0,0-1.075-.2q-3.492-.015-6.984,0c-.168,0-.345.01-.533.02Zm-4.607-34.1-.345-.138c-2.1-.77-4.212-1.539-6.313-2.3-1.815-.661-3.64-1.322-5.455-1.983a1.4,1.4,0,0,0-1.934.661c-.562,1.381-1.046,2.792-1.578,4.232l13.643,4.952Zm8.2,2.959-1.983,5.445L176,377.107c.493-1.322.957-2.594,1.411-3.857a1.49,1.49,0,0,0-1.016-2.17l-3.906-1.42Zm-6.57,31.152V377.58c-.789,0-1.549.03-2.3-.01-.454-.02-.562.128-.562.572q.015,9.6.01,19.2c0,.168.02.335.03.523Zm1.184-36.173c-.276-1.815-.5-3.5-.8-5.179a2.976,2.976,0,0,0-5.889.532,2.662,2.662,0,0,0,1.549,2.683C155.46,360.456,157.176,361.018,158.962,361.688Zm4.281,1.549c1.776.631,3.423,1.282,5.11,1.8a2.885,2.885,0,0,0,3.324-1.559,2.981,2.981,0,0,0-.671-3.531,2.908,2.908,0,0,0-3.739-.2C165.916,360.84,164.634,362.024,163.243,363.238Zm-1.628,2.476-2.723-.986-1.993,5.445,2.733.986Z" transform="translate(-137.227 -351.242)"/>
      </g>
    </g>
  </g>
</svg>
