<svg xmlns="http://www.w3.org/2000/svg" width="256.875" height="54.527" viewBox="0 0 256.875 54.527">
  <g id="Grupo_26" data-name="Grupo 26" transform="translate(-380.681 -97.448)">
    <g id="Grupo_25" data-name="Grupo 25">
      <path id="Trazado_21" data-name="Trazado 21" d="M380.681,111.672H395l14.414,36.794,1.138,3.034H396.233Z"/>
      <path id="Trazado_22" data-name="Trazado 22" d="M430.535,131.586c0-11.664,6.354-20.388,20.768-20.388,13.94,0,20.768,6.828,20.768,20.862H444.1c.284,9.294,4.647,15.458,12.707,15.458a14.94,14.94,0,0,0,13.276-7.4,4.657,4.657,0,0,1,.379,1.991c0,4.552-7.586,9.863-17.069,9.863C437.363,151.975,430.535,143.25,430.535,131.586Zm27.975-1.422c-.285-11.475-3.224-17.07-7.207-17.07-4.552,0-7.018,6.828-7.207,17.07Z"/>
      <path id="Trazado_23" data-name="Trazado 23" d="M479.613,111.672h13.276v3.7c3.888-2.844,9.293-4.172,14.319-4.172,6.448,0,12.138,2.371,12.138,6.543a4.649,4.649,0,0,1-4.931,4.552c-5.69,0-5.4-7.492-12.612-7.492a13.091,13.091,0,0,0-8.914,3.983V151.5H479.613Z"/>
      <path id="Trazado_24" data-name="Trazado 24" d="M523.881,111.672h13.276v6.069a17.281,17.281,0,0,1,13.75-6.543c10.241,0,17.733,7.207,17.733,20.293V151.5c-7.4,0-13.276-1.043-13.276-7.681V130.448c0-10.052-2.371-14.793-8.345-14.793-3.319,0-6.923,1.9-9.862,5.6V151.5H523.881Z"/>
      <path id="Trazado_25" data-name="Trazado 25" d="M575.424,140.88c0-17.259,30.535-9.1,30.535-20.578,0-3.414-2.181-7.208-6.448-7.208-8.155,0-2.276,12.518-11.854,12.518a5.062,5.062,0,0,1-5.215-5.121c0-4.172,4.551-9.293,16.5-9.293,8.724,0,17.733,2.845,17.733,14.983V151.5c-6.448,0-11.664-.758-12.992-5.31-3.508,3.888-9.2,5.785-14.034,5.785C581.4,151.975,575.424,147.9,575.424,140.88Zm27.975,2.75V127.6c-5.216,2.845-14.414,4.268-14.414,12.044,0,4.362,3.7,6.827,7.586,6.827A9.627,9.627,0,0,0,603.4,143.63Z"/>
      <path id="Trazado_26" data-name="Trazado 26" d="M624.28,143.914V97.448h13.276V151.5C630.159,151.5,624.375,150.457,624.28,143.914Z"/>
      <path id="Trazado_27" data-name="Trazado 27" d="M424.724,123.594c-2.522,3.911-9.414,5.88-12.565,22.126,0,0-9.255-17.526-1.486-29.781,2.762-4.356,7-6.256,11.494-4.373C426.243,113.273,427.52,119.26,424.724,123.594Z" fill="#7647ea"/>
    </g>
  </g>
</svg>
