<svg xmlns="http://www.w3.org/2000/svg" width="47.047" height="47.058" viewBox="0 0 47.047 47.058">
  <g id="Grupo_18" data-name="Grupo 18" transform="translate(-2373.071 -2415.448)">
    <g id="Grupo_17" data-name="Grupo 17">
      <path id="Trazado_19" data-name="Trazado 19" d="M2420.107,2437.787a23.1,23.1,0,0,0-46.159-.421c-.011.335-.022.67-.022,1.005a22.742,22.742,0,0,0,3.309,11.84l-4.164,12.3,12.792-4.066a23.125,23.125,0,0,0,34.255-20.069C2420.118,2438.176,2420.118,2437.982,2420.107,2437.787Zm-23.085,19.853a19.34,19.34,0,0,1-10.683-3.19l-7.461,2.379,2.422-7.158a19.074,19.074,0,0,1-3.7-11.3,18.146,18.146,0,0,1,.1-1.87,19.428,19.428,0,0,1,38.678.367c.043.5.065,1,.065,1.5A19.366,19.366,0,0,1,2397.022,2457.64Z" fill="#fff" fill-rule="evenodd"/>
      <path id="Trazado_20" data-name="Trazado 20" d="M2407.608,2443c-.573-.28-3.352-1.644-3.871-1.827s-.9-.281-1.276.281-1.471,1.827-1.795,2.2-.659.422-1.232.14a15.276,15.276,0,0,1-4.553-2.789,16.834,16.834,0,0,1-3.147-3.882c-.324-.562-.032-.865.249-1.146.26-.259.563-.66.854-.984.076-.1.141-.184.206-.27a6.353,6.353,0,0,0,.357-.671,1.016,1.016,0,0,0-.043-.984c-.141-.281-1.276-3.049-1.752-4.174s-.941-.93-1.276-.93-.7-.053-1.081-.053a2.093,2.093,0,0,0-1.514.7,6.3,6.3,0,0,0-1.979,4.693,7.131,7.131,0,0,0,.292,1.914,12.758,12.758,0,0,0,2.022,3.893c.281.367,3.914,6.228,9.667,8.488,5.763,2.238,5.763,1.492,6.8,1.4s3.352-1.352,3.816-2.671a4.638,4.638,0,0,0,.336-2.671C2408.548,2443.421,2408.169,2443.28,2407.608,2443Z" fill="#fff" fill-rule="evenodd"/>
    </g>
  </g>
</svg>
