<svg xmlns="http://www.w3.org/2000/svg" width="22.666" height="14.43" viewBox="0 0 22.666 14.43">
  <g id="Grupo_111" data-name="Grupo 111" transform="translate(-1334.615 -5118.342)">
    <g id="Grupo_110" data-name="Grupo 110">
      <path id="Trazado_81" data-name="Trazado 81" d="M1342.947,5132.227a3.874,3.874,0,0,0,1.591-.706,3.931,3.931,0,0,0,1-1.107,4.132,4.132,0,0,0,.626-2.246,3.726,3.726,0,0,0-.548-2.062,3.14,3.14,0,0,0-1.626-1.242,3.384,3.384,0,0,0,1.074-.8,3.135,3.135,0,0,0,.652-2.072,3.58,3.58,0,0,0-.647-2.149,4.319,4.319,0,0,0-3.647-1.5h-6.8v14.076h6.343A9.771,9.771,0,0,0,1342.947,5132.227Zm-5.524-11.44h3.062a5.29,5.29,0,0,1,1.664.22,1.259,1.259,0,0,1,.756,1.3,1.33,1.33,0,0,1-.572,1.237,2.835,2.835,0,0,1-1.489.348h-3.421Zm0,9.186v-3.752h3.464a3.546,3.546,0,0,1,1.407.238,1.512,1.512,0,0,1,.9,1.509,1.777,1.777,0,0,1-.925,1.758,3.333,3.333,0,0,1-1.425.247Z" fill="#444"/>
      <g id="Grupo_109" data-name="Grupo 109">
        <path id="Trazado_82" data-name="Trazado 82" d="M1348.545,5131.491a5.672,5.672,0,0,0,3.666,1.281,5.052,5.052,0,0,0,3.916-1.519,3.4,3.4,0,0,0,1.01-1.881h-2.779a2.119,2.119,0,0,1-2.072,1.194,2.761,2.761,0,0,1-1.5-.392,2.5,2.5,0,0,1-1.089-2.2h7.581a13.283,13.283,0,0,0-.089-2.066,5.1,5.1,0,0,0-.83-2.151,4.218,4.218,0,0,0-1.8-1.54,5.917,5.917,0,0,0-2.447-.487,5.019,5.019,0,0,0-3.722,1.443,5.634,5.634,0,0,0-1.434,4.147A5.046,5.046,0,0,0,1348.545,5131.491Zm1.944-6.92a2.16,2.16,0,0,1,1.624-.594,2.389,2.389,0,0,1,1.615.56,2.269,2.269,0,0,1,.725,1.645h-4.689A2.837,2.837,0,0,1,1350.489,5124.571Z" fill="#444"/>
        <rect id="Rectángulo_62" data-name="Rectángulo 62" width="6.117" height="1.421" transform="translate(1348.877 5119.151)" fill="#444"/>
      </g>
    </g>
  </g>
</svg>
