<svg xmlns="http://www.w3.org/2000/svg" width="46.55" height="46.55" viewBox="0 0 46.55 46.55">
  <g id="Grupo_6" data-name="Grupo 6" transform="translate(-1902.695 -2415.853)">
    <g id="Grupo_5" data-name="Grupo 5">
      <path id="Trazado_11" data-name="Trazado 11" d="M1925.97,2420.046c6.215,0,6.951.024,9.405.136a12.861,12.861,0,0,1,4.322.8,7.709,7.709,0,0,1,4.417,4.417,12.877,12.877,0,0,1,.8,4.322c.112,2.454.136,3.19.136,9.405s-.024,6.951-.136,9.405a12.877,12.877,0,0,1-.8,4.322,7.7,7.7,0,0,1-4.417,4.417,12.854,12.854,0,0,1-4.322.8c-2.454.112-3.19.135-9.405.135s-6.951-.023-9.405-.135a12.853,12.853,0,0,1-4.322-.8,7.706,7.706,0,0,1-4.418-4.417,12.91,12.91,0,0,1-.8-4.322c-.112-2.454-.135-3.19-.135-9.405s.023-6.951.135-9.405a12.91,12.91,0,0,1,.8-4.322,7.715,7.715,0,0,1,4.418-4.417,12.86,12.86,0,0,1,4.322-.8c2.454-.112,3.191-.136,9.405-.136m0-4.193c-6.321,0-7.114.027-9.6.14a17.088,17.088,0,0,0-5.649,1.082,11.893,11.893,0,0,0-6.807,6.807,17.065,17.065,0,0,0-1.082,5.65c-.114,2.482-.14,3.275-.14,9.6s.026,7.114.14,9.6a17.06,17.06,0,0,0,1.082,5.649,11.9,11.9,0,0,0,6.807,6.808,17.082,17.082,0,0,0,5.649,1.082c2.483.113,3.276.139,9.6.139s7.114-.026,9.6-.139a17.083,17.083,0,0,0,5.65-1.082,11.9,11.9,0,0,0,6.808-6.808,17.114,17.114,0,0,0,1.082-5.649c.112-2.483.139-3.276.139-9.6s-.027-7.114-.139-9.6a17.119,17.119,0,0,0-1.082-5.65,11.9,11.9,0,0,0-6.808-6.807,17.089,17.089,0,0,0-5.65-1.082c-2.482-.113-3.275-.14-9.6-.14" fill="#fff"/>
      <path id="Trazado_12" data-name="Trazado 12" d="M1925.97,2427.176a11.952,11.952,0,1,0,11.952,11.952,11.952,11.952,0,0,0-11.952-11.952m0,19.711a7.758,7.758,0,1,1,7.758-7.759,7.758,7.758,0,0,1-7.758,7.759" fill="#fff"/>
      <path id="Trazado_13" data-name="Trazado 13" d="M1941.188,2426.7a2.794,2.794,0,1,1-2.793-2.793,2.794,2.794,0,0,1,2.793,2.793" fill="#fff"/>
    </g>
  </g>
</svg>
