<svg xmlns="http://www.w3.org/2000/svg" width="22.044" height="22.045" viewBox="0 0 22.044 22.045">
  <g id="Grupo_108" data-name="Grupo 108" transform="translate(-1334.926 -5057.717)">
    <g id="Grupo_107" data-name="Grupo 107">
      <path id="Trazado_78" data-name="Trazado 78" d="M1345.948,5059.7c2.943,0,3.292.011,4.454.064a6.1,6.1,0,0,1,2.047.38,3.654,3.654,0,0,1,2.092,2.091,6.114,6.114,0,0,1,.379,2.047c.053,1.163.065,1.511.065,4.454s-.012,3.292-.065,4.454a6.108,6.108,0,0,1-.379,2.047,3.659,3.659,0,0,1-2.092,2.092,6.1,6.1,0,0,1-2.047.38c-1.162.052-1.511.064-4.454.064s-3.292-.012-4.454-.064a6.09,6.09,0,0,1-2.046-.38,3.657,3.657,0,0,1-2.093-2.092,6.134,6.134,0,0,1-.379-2.047c-.053-1.162-.064-1.511-.064-4.454s.011-3.291.064-4.454a6.14,6.14,0,0,1,.379-2.047,3.652,3.652,0,0,1,2.093-2.091,6.09,6.09,0,0,1,2.046-.38c1.162-.053,1.511-.064,4.454-.064m0-1.986c-2.993,0-3.369.013-4.544.066a8.107,8.107,0,0,0-2.676.512,5.639,5.639,0,0,0-3.223,3.224,8.063,8.063,0,0,0-.513,2.676c-.054,1.175-.066,1.551-.066,4.544s.012,3.369.066,4.545a8.062,8.062,0,0,0,.513,2.675,5.631,5.631,0,0,0,3.223,3.224,8.082,8.082,0,0,0,2.676.512c1.175.054,1.551.067,4.544.067s3.369-.013,4.545-.067a8.081,8.081,0,0,0,2.675-.512,5.637,5.637,0,0,0,3.224-3.224,8.09,8.09,0,0,0,.512-2.675c.054-1.176.066-1.551.066-4.545s-.012-3.369-.066-4.544a8.091,8.091,0,0,0-.512-2.676,5.644,5.644,0,0,0-3.224-3.224,8.106,8.106,0,0,0-2.675-.512c-1.176-.053-1.551-.066-4.545-.066" fill="#444"/>
      <path id="Trazado_79" data-name="Trazado 79" d="M1345.948,5063.079a5.66,5.66,0,1,0,5.66,5.66,5.66,5.66,0,0,0-5.66-5.66m0,9.334a3.674,3.674,0,1,1,3.674-3.674,3.674,3.674,0,0,1-3.674,3.674" fill="#444"/>
      <path id="Trazado_80" data-name="Trazado 80" d="M1353.155,5062.855a1.323,1.323,0,1,1-1.323-1.322,1.323,1.323,0,0,1,1.323,1.322" fill="#444"/>
    </g>
  </g>
</svg>
