<svg xmlns="http://www.w3.org/2000/svg" width="47.864" height="30.47" viewBox="0 0 47.864 30.47">
  <g id="Grupo_9" data-name="Grupo 9" transform="translate(-2067.844 -2423.893)">
    <g id="Grupo_8" data-name="Grupo 8">
      <path id="Trazado_14" data-name="Trazado 14" d="M2085.439,2453.213a8.155,8.155,0,0,0,3.359-1.492,8.237,8.237,0,0,0,2.1-2.337,8.709,8.709,0,0,0,1.323-4.742,7.874,7.874,0,0,0-1.157-4.354,6.628,6.628,0,0,0-3.435-2.623,7.11,7.11,0,0,0,2.269-1.693,6.627,6.627,0,0,0,1.376-4.377,7.562,7.562,0,0,0-1.365-4.537q-2.266-3.084-7.7-3.165h-14.367v29.724h13.4A20.573,20.573,0,0,0,2085.439,2453.213Zm-11.666-24.158h6.467a11.138,11.138,0,0,1,3.513.465,2.659,2.659,0,0,1,1.6,2.742,2.8,2.8,0,0,1-1.209,2.611,5.965,5.965,0,0,1-3.143.736h-7.225Zm0,19.4v-7.923h7.316a7.505,7.505,0,0,1,2.972.5,3.191,3.191,0,0,1,1.893,3.185,3.746,3.746,0,0,1-1.954,3.712,7,7,0,0,1-3.009.523Z" fill="#fff"/>
      <g id="Grupo_7" data-name="Grupo 7">
        <path id="Trazado_15" data-name="Trazado 15" d="M2097.26,2451.659a11.974,11.974,0,0,0,7.741,2.7q5.319,0,8.269-3.206a7.171,7.171,0,0,0,2.132-3.973h-5.868a4.8,4.8,0,0,1-1.183,1.511,4.858,4.858,0,0,1-3.191,1.01,5.838,5.838,0,0,1-3.168-.827q-2.164-1.332-2.3-4.64H2115.7a28.112,28.112,0,0,0-.188-4.361,10.78,10.78,0,0,0-1.752-4.544,8.917,8.917,0,0,0-3.8-3.252,12.507,12.507,0,0,0-5.169-1.029,10.6,10.6,0,0,0-7.859,3.048q-3.029,3.045-3.028,8.758Q2093.906,2448.954,2097.26,2451.659Zm4.1-14.613a4.566,4.566,0,0,1,3.43-1.255,5.047,5.047,0,0,1,3.41,1.184,4.792,4.792,0,0,1,1.531,3.473h-9.9A5.982,5.982,0,0,1,2101.365,2437.046Z" fill="#fff"/>
        <rect id="Rectángulo_2" data-name="Rectángulo 2" width="12.917" height="3" transform="translate(2097.961 2425.602)" fill="#fff"/>
      </g>
    </g>
  </g>
</svg>
