<svg xmlns="http://www.w3.org/2000/svg" width="64.318" height="40.945" viewBox="0 0 64.318 40.945">
  <g id="Grupo_70" data-name="Grupo 70" transform="translate(-198.084 -15833.201)">
    <g id="Grupo_69" data-name="Grupo 69">
      <path id="Trazado_41" data-name="Trazado 41" d="M221.728,15872.6a11,11,0,0,0,7.342-5.146,11.7,11.7,0,0,0,1.778-6.371,10.574,10.574,0,0,0-1.556-5.852,8.9,8.9,0,0,0-4.614-3.524,9.553,9.553,0,0,0,3.048-2.275,8.9,8.9,0,0,0,1.85-5.881,10.161,10.161,0,0,0-1.835-6.1q-3.046-4.143-10.35-4.253H198.084v39.941h18A27.6,27.6,0,0,0,221.728,15872.6Zm-15.676-32.463h8.689a14.969,14.969,0,0,1,4.721.625,3.574,3.574,0,0,1,2.147,3.685,3.773,3.773,0,0,1-1.625,3.51,8.025,8.025,0,0,1-4.225.989h-9.707Zm0,26.069v-10.648h9.83a10.048,10.048,0,0,1,3.993.678,4.283,4.283,0,0,1,2.544,4.278q0,3.686-2.625,4.988a9.416,9.416,0,0,1-4.043.7Z"/>
      <g id="Grupo_68" data-name="Grupo 68">
        <path id="Trazado_42" data-name="Trazado 42" d="M237.612,15870.511a16.09,16.09,0,0,0,10.4,3.636q7.146,0,11.111-4.31a9.642,9.642,0,0,0,2.866-5.338h-7.886a6.444,6.444,0,0,1-1.59,2.03,6.533,6.533,0,0,1-4.288,1.356,7.843,7.843,0,0,1-4.257-1.111q-2.91-1.789-3.089-6.234h21.511a37.649,37.649,0,0,0-.254-5.861,14.484,14.484,0,0,0-2.353-6.1,11.981,11.981,0,0,0-5.105-4.37,16.808,16.808,0,0,0-6.946-1.383,14.237,14.237,0,0,0-10.56,4.1q-4.069,4.091-4.07,11.768Q233.1,15866.877,237.612,15870.511Zm5.517-19.635a6.13,6.13,0,0,1,4.609-1.686,6.778,6.778,0,0,1,4.582,1.59,6.445,6.445,0,0,1,2.058,4.667H241.072A8.03,8.03,0,0,1,243.129,15850.876Z"/>
        <rect id="Rectángulo_35" data-name="Rectángulo 35" width="17.358" height="4.031" transform="translate(238.554 15835.497)"/>
      </g>
    </g>
  </g>
</svg>
