<svg xmlns="http://www.w3.org/2000/svg" width="326.88" height="172.827" viewBox="0 0 326.88 172.827"><defs><style>.a{fill:#fff;}</style></defs><g transform="translate(-1175 -1762.012)"><path class="a" d="M1319.071,1867.634v6.155c-19.02,2.077-42.462-10.926-47.154-36.425-4.879-26.516,14.383-50.723,41.1-52.738v-22.614h92.342v92.209h-92.286v-63.047a38.221,38.221,0,0,0-35.493,36.463,36.906,36.906,0,0,0,11.764,29.308C1297.577,1864.887,1307.556,1868.262,1319.071,1867.634Zm.072-82.925c11.961,1.095,22.074,5.918,30.047,14.848a43.484,43.484,0,0,1,11.321,31.7h-41.316v16.953h80.159v-80.137h-80.211Zm.008,40.083h34.64c-1.137-16.648-16.43-32.588-34.64-33.536Z"/><path class="a" d="M1486.237,1904.882c7.386.134,13.442,4.476,15.144,10.966a15.025,15.025,0,0,1-12.231,18.652c-6.146,1.008-11.629-.329-15.733-5.187-7.189-8.512-2.355-21.565,8.758-23.916C1483.506,1905.115,1484.882,1905.048,1486.237,1904.882Zm-.147,26.457a11.284,11.284,0,0,0,11.668-11.165,11.778,11.778,0,0,0-11.5-11.687c-6.921-.035-12.027,4.631-12.086,11.044A11.9,11.9,0,0,0,1486.09,1931.339Z"/><path class="a" d="M1290.4,1916.588v3.483h-15.758v10.745h18.05v3.543h-21.833v-28.907h21.437v3.4h-17.684v7.739Z"/><path class="a" d="M1346.223,1928.12v6.242h-3.691v-28.949c4.334,0,8.69-.036,13.044.025a13.907,13.907,0,0,1,3.261.541c4.147,1.082,7.172,3.466,7.885,7.864.77,4.751-.454,8.9-4.634,11.786-2.856,1.974-6.117,2.436-9.476,2.486C1350.562,1928.145,1348.511,1928.12,1346.223,1928.12Zm.1-3.821c3.433,0,6.821.316,10.124-.081,4-.48,6.3-3.527,6.41-7.6a6.619,6.619,0,0,0-5.762-7.19c-3.515-.632-7.16-.545-10.772-.776Z"/><path class="a" d="M1327.357,1907.652c-.516,1.2-.967,2.249-1.44,3.347a18.186,18.186,0,0,0-9.823-2.4,16.14,16.14,0,0,0-4.961,1.349,3.073,3.073,0,0,0-1.866,3.071,2.932,2.932,0,0,0,2.2,2.816c2.572.737,5.2,1.261,7.811,1.877a43.615,43.615,0,0,1,4.29,1.06c2.529.878,4.72,2.242,5.255,5.148a7.882,7.882,0,0,1-3.006,8.15c-3.086,2.411-6.719,2.91-10.48,2.731a19.875,19.875,0,0,1-10.748-3.7l1.581-2.881c3.129,1.022,6.038,2.326,9.082,2.845a15.656,15.656,0,0,0,6.482-.717,4.084,4.084,0,0,0,3.023-4.327c-.073-2.025-1.424-3.051-3.117-3.525-2.377-.666-4.836-1.032-7.235-1.625a31.243,31.243,0,0,1-5.425-1.636,6.39,6.39,0,0,1-1.986-10.508,11.312,11.312,0,0,1,6.613-3.442A20.437,20.437,0,0,1,1327.357,1907.652Z"/><path class="a" d="M1234.192,1905.425h3.649c.084.121.194.206.193.289-.1,6.322.256,12.693-.431,18.951-.682,6.213-4.91,9.554-11.162,10.091a15.261,15.261,0,0,1-8.187-1.271,10.821,10.821,0,0,1-6.237-9.449c-.344-4.938-.23-9.908-.306-14.864-.018-1.2,0-2.406,0-3.7h3.908c0,.624,0,1.244,0,1.864.037,5.011-.126,10.034.162,15.032.408,7.076,6.386,10.789,13.082,8.375,3.349-1.207,5.288-4.321,5.321-8.7.037-4.907.009-9.816.009-14.724Z"/><path class="a" d="M1404.254,1934.354c-4.009.32-4.009.32-5.475-3.115-1.33-3.118-1.33-3.119-4.7-3.118-3.321,0-6.643.027-9.964-.019a1.493,1.493,0,0,0-1.669,1.065c-.352.932-.832,1.816-1.257,2.721-1.4,2.968-1.4,2.968-5.063,2.377.638-1.414,1.243-2.8,1.881-4.16q5.484-11.728,10.966-23.456a1.807,1.807,0,0,1,1.819-1.329c1.116-.022,1.3.669,1.608,1.377q5.681,13.109,11.35,26.222C1403.931,1933.341,1404.056,1933.787,1404.254,1934.354Zm-13.738-23.016c-1.867,4.289-3.76,8.635-5.7,13.1h10.9Q1393.039,1917.7,1390.516,1911.338Z"/><path class="a" d="M1439.563,1928.407c1.764,3.1,2.285,2.748-1.053,4.5-6.7,3.512-15.788,2.075-20.319-3.055a14.859,14.859,0,0,1,8.2-24.418,16.99,16.99,0,0,1,12.972,1.892c.315.192.614.41.918.618.175.119.345.243.595.42l-1.955,3.1a13.049,13.049,0,0,0-11.376-2.743,10.97,10.97,0,0,0-8.912,12.024,11.822,11.822,0,0,0,11.333,10.584A16.379,16.379,0,0,0,1439.563,1928.407Z"/><path class="a" d="M1200.32,1905.472v3.363h-10.74v25.534h-3.795v-25.425H1175v-3.472Z"/><path class="a" d="M1456.66,1934.369h-3.618v-28.9h3.618Z"/></g></svg>